<svg xmlns="http://www.w3.org/2000/svg" xmlns:xlink="http://www.w3.org/1999/xlink" width="37" height="11" x="0" y="0" version="1.1" viewBox="0 0 37 11"><path id="turn-shadow-shape" fill="currentColor" d="M31.5,0 C34.538,0 37,2.463 37,5.5 C37,8.538 34.538,11 31.5,11 L5.5,11 C2.462,11 0,8.538 -0,5.5 C0,2.463 2.462,0 5.5,0 L31.5,0 z"/><path fill-opacity="0" stroke="#000" stroke-linecap="round" stroke-width="3" d="M6,6 L32,6"/><path fill-opacity="0" stroke="#FFF" stroke-linecap="round" stroke-width="2" d="M6,6 L32,6"/><path fill="#000" d="M7.5,5.5 C7.5,6.605 6.605,7.5 5.5,7.5 C4.395,7.5 3.5,6.605 3.5,5.5 C3.5,4.396 4.395,3.5 5.5,3.5 C6.605,3.5 7.5,4.396 7.5,5.5 z"/><path fill="#BBB" d="M7,5.5 C7,6.329 6.328,7 5.5,7 C4.672,7 4,6.329 4,5.5 C4,4.672 4.672,4 5.5,4 C6.328,4 7,4.672 7,5.5 z"/><path fill="#000" d="M33.5,5.5 C33.5,6.605 32.605,7.5 31.5,7.5 C30.395,7.5 29.5,6.605 29.5,5.5 C29.5,4.396 30.395,3.5 31.5,3.5 C32.605,3.5 33.5,4.396 33.5,5.5 z"/><path fill="#BBB" d="M33,5.5 C33,6.329 32.328,7 31.5,7 C30.672,7 30,6.329 30,5.5 C30,4.672 30.672,4 31.5,4 C32.328,4 33,4.672 33,5.5 z"/></svg>